<svg width="960" height="380" viewBox="0 0 960 380" xmlns="http://www.w3.org/2000/svg" font-family="Segoe UI, Malgun Gothic, Apple SD Gothic Neo, sans-serif">
  <defs>
    <radialGradient id="chA" cx="0.5" cy="0" r="0.9">
      <stop offset="0" stop-color="#233060" stop-opacity="0.75"/>
      <stop offset="1" stop-color="#233060" stop-opacity="0"/>
    </radialGradient>
    <radialGradient id="chB" cx="0.85" cy="1" r="0.8">
      <stop offset="0" stop-color="#0E4E3C" stop-opacity="0.65"/>
      <stop offset="1" stop-color="#0E4E3C" stop-opacity="0"/>
    </radialGradient>
    <linearGradient id="chCard" x1="0" y1="0" x2="0" y2="1">
      <stop offset="0" stop-color="#1B2A47"/>
      <stop offset="1" stop-color="#141F38"/>
    </linearGradient>
    <linearGradient id="chLedger" x1="0" y1="0" x2="0" y2="1">
      <stop offset="0" stop-color="#0F5F49"/>
      <stop offset="1" stop-color="#0B4534"/>
    </linearGradient>
    <linearGradient id="chMint" x1="0" y1="0" x2="1" y2="0">
      <stop offset="0" stop-color="#5EEAD4"/>
      <stop offset="1" stop-color="#10B981"/>
    </linearGradient>
    <filter id="chShadow" x="-40%" y="-40%" width="180%" height="180%">
      <feDropShadow dx="0" dy="5" stdDeviation="8" flood-color="#000000" flood-opacity="0.4"/>
    </filter>
    <marker id="chAr" viewBox="0 0 10 10" refX="8.6" refY="5" markerWidth="7.5" markerHeight="7.5" orient="auto-start-reverse">
      <path d="M 0 0.8 L 9 5 L 0 9.2 z" fill="#5C6B8C"/>
    </marker>
    <marker id="chArM" viewBox="0 0 10 10" refX="8.6" refY="5" markerWidth="7.5" markerHeight="7.5" orient="auto-start-reverse">
      <path d="M 0 0.8 L 9 5 L 0 9.2 z" fill="#34D399"/>
    </marker>
  </defs>

  <rect width="960" height="380" rx="18" fill="#0B1220"/>
  <rect width="960" height="380" rx="18" fill="url(#chA)"/>
  <rect width="960" height="380" rx="18" fill="url(#chB)"/>
  <rect x="1.5" y="1.5" width="957" height="377" rx="16.5" fill="none" stroke="#26324D" stroke-width="3"/>

  <!-- 채널 1: Claude Code -->
  <g filter="url(#chShadow)">
    <rect x="38" y="34" width="268" height="86" rx="16" fill="url(#chCard)"/>
    <rect x="39.5" y="35.5" width="265" height="83" rx="14.5" fill="none" stroke="#41539E" stroke-width="1.6"/>
    <line x1="56" y1="36.8" x2="288" y2="36.8" stroke="#5A6C96" stroke-width="1.4" opacity="0.55"/>
  </g>
  <!-- 모니터 아이콘 -->
  <g transform="translate(62,56)" stroke="#A5C4FC" stroke-width="2.4" fill="none" stroke-linejoin="round">
    <rect x="0" y="0" width="26" height="17" rx="2.5"/>
    <line x1="9" y1="22" x2="17" y2="22" stroke-linecap="round"/>
    <line x1="13" y1="17" x2="13" y2="22"/>
  </g>
  <text x="100" y="70" fill="#DCE7FB" font-size="17" font-weight="800">Claude Code · 데스크톱 앱</text>
  <text x="186" y="99" text-anchor="middle" fill="#8CA0C0" font-size="13.5">MCP 24도구 — 조회는 바로 · 쓰기는 승인 게이트</text>

  <!-- 채널 2: ChatGPT -->
  <g filter="url(#chShadow)">
    <rect x="346" y="34" width="268" height="86" rx="16" fill="url(#chCard)"/>
    <rect x="347.5" y="35.5" width="265" height="83" rx="14.5" fill="none" stroke="#6D5BB8" stroke-width="1.6"/>
    <line x1="364" y1="36.8" x2="596" y2="36.8" stroke="#8577C9" stroke-width="1.4" opacity="0.5"/>
  </g>
  <!-- 채팅 아이콘 -->
  <g transform="translate(372,56)" stroke="#C4B5FD" stroke-width="2.4" fill="none" stroke-linejoin="round">
    <path d="M 0 4 Q 0 0 4 0 L 22 0 Q 26 0 26 4 L 26 13 Q 26 17 22 17 L 10 17 L 3 22 L 5 17 Q 0 17 0 13 Z"/>
    <line x1="6" y1="6.5" x2="20" y2="6.5"/>
    <line x1="6" y1="11" x2="15" y2="11"/>
  </g>
  <text x="494" y="70" text-anchor="middle" fill="#E6DFFC" font-size="17" font-weight="800">ChatGPT 채팅</text>
  <text x="494" y="99" text-anchor="middle" fill="#9C93BF" font-size="13.5">SAVE 승인분만 → inbox → 서명키 pull</text>

  <!-- 채널 3: 웹/앱 커넥터 -->
  <g filter="url(#chShadow)">
    <rect x="654" y="34" width="268" height="86" rx="16" fill="url(#chCard)"/>
    <rect x="655.5" y="35.5" width="265" height="83" rx="14.5" fill="none" stroke="#B0567E" stroke-width="1.6"/>
    <line x1="672" y1="36.8" x2="904" y2="36.8" stroke="#C76F95" stroke-width="1.4" opacity="0.5"/>
  </g>
  <!-- 지구본 아이콘 -->
  <g transform="translate(680,55)" stroke="#F9A8C9" stroke-width="2.2" fill="none">
    <circle cx="12" cy="12" r="11"/>
    <ellipse cx="12" cy="12" rx="5" ry="11"/>
    <line x1="1" y1="12" x2="23" y2="12"/>
  </g>
  <text x="802" y="70" text-anchor="middle" fill="#FBDCE9" font-size="17" font-weight="800">웹 · 앱 커넥터</text>
  <text x="802" y="99" text-anchor="middle" fill="#C69BAE" font-size="13.5">경로 토큰 보호 터널 (HTTP 모드)</text>

  <!-- 연결선 -->
  <path d="M 186 120 C 186 160 330 168 396 192" stroke="#5C6B8C" stroke-width="2.6" fill="none" marker-end="url(#chAr)"/>
  <line x1="480" y1="120" x2="480" y2="186" stroke="#5C6B8C" stroke-width="2.6" marker-end="url(#chAr)"/>
  <path d="M 802 120 C 802 160 630 168 564 192" stroke="#5C6B8C" stroke-width="2.6" fill="none" marker-end="url(#chAr)"/>

  <!-- 중앙: 내 PC 장부 -->
  <g filter="url(#chShadow)">
    <rect x="356" y="192" width="248" height="92" rx="20" fill="url(#chLedger)"/>
    <rect x="358" y="194" width="244" height="88" rx="18" fill="none" stroke="#34D399" stroke-width="2.4"/>
    <line x1="378" y1="195.6" x2="582" y2="195.6" stroke="#7BE8C5" stroke-width="1.4" opacity="0.5"/>
  </g>
  <g transform="translate(388,216)" stroke="#A7F3D0" stroke-width="2.6" fill="none" stroke-linecap="round">
    <rect x="0" y="0" width="26" height="20" rx="3" stroke-linejoin="round"/>
    <line x1="6" y1="6" x2="20" y2="6"/>
    <line x1="6" y1="11" x2="16" y2="11"/>
    <line x1="6" y1="15.5" x2="20" y2="15.5" stroke="#5EEAD4"/>
  </g>
  <text x="496" y="230" text-anchor="middle" fill="#ECFDF5" font-size="19" font-weight="800">내 PC 장부</text>
  <text x="496" y="258" text-anchor="middle" fill="#7BE8C5" font-size="13.5">ledger.sqlite · 자동 저장 없음</text>

  <!-- 장부 → 오픈크랩 -->
  <line x1="606" y1="238" x2="692" y2="238" stroke="url(#chMint)" stroke-width="3.2" marker-end="url(#chArM)"/>
  <text x="646" y="216" text-anchor="middle" fill="#7BE8C5" font-size="11.5">민감정보 T3 차단</text>
  <text x="646" y="264" text-anchor="middle" fill="#7BE8C5" font-size="11.5">바뀐 것만 델타</text>

  <g filter="url(#chShadow)">
    <rect x="698" y="196" width="228" height="84" rx="16" fill="url(#chCard)"/>
    <rect x="699.5" y="197.5" width="225" height="81" rx="14.5" fill="none" stroke="#8A6D1F" stroke-width="1.6"/>
  </g>
  <!-- 패키지 아이콘 -->
  <g transform="translate(722,220)" stroke="#FCD34D" stroke-width="2.2" fill="none" stroke-linejoin="round">
    <path d="M 12 0 L 24 6 L 24 18 L 12 24 L 0 18 L 0 6 Z"/>
    <path d="M 0 6 L 12 12 L 24 6"/>
    <line x1="12" y1="12" x2="12" y2="24"/>
  </g>
  <text x="758" y="230" fill="#FBE9B4" font-size="17" font-weight="800">오픈크랩 전문가 팩</text>
  <text x="822" y="258" text-anchor="middle" fill="#C4A860" font-size="13.5">읽기 조회 cloud_recall · cloud_packs</text>

  <!-- 하단 원칙 바 -->
  <g filter="url(#chShadow)">
    <rect x="270" y="318" width="420" height="42" rx="21" fill="#101A30" stroke="#2AA37A" stroke-width="1.4"/>
  </g>
  <path d="M 292 339 L 297.5 345 L 308 333" stroke="#5EEAD4" stroke-width="3" fill="none" stroke-linecap="round" stroke-linejoin="round"/>
  <text x="492" y="345" text-anchor="middle" fill="#B7C3D8" font-size="15.5" font-weight="600">어느 채널이든 — 내가 승인한 것만 · 로컬 우선</text>
</svg>
